<svg xmlns="http://www.w3.org/2000/svg" viewBox="0 0 800 200" width="800" height="200">
  <rect width="800" height="200" fill="#1C1612"/>
  <g fill="#F5F0EB">
    <path d="M226 391V592H398Q452 592 479.0 568.5Q506 545 506 493Q506 439 479.0 415.0Q452 391 398 391ZM69 714V0H226V279H383Q442 279 468.0 253.0Q494 227 502 171Q508 128 511.0 81.0Q514 34 527 0H684Q673 15 667.5 36.5Q662 58 659.5 82.0Q657 106 656.0 129.0Q655 152 654 169Q652 196 646.5 223.0Q641 250 629.0 272.5Q617 295 598.0 311.5Q579 328 550 336V338Q610 362 636.5 408.0Q663 454 663 517Q663 558 648.5 593.5Q634 629 606.5 656.0Q579 683 540.5 698.5Q502 714 454 714Z" transform="translate(40.0,90.0) scale(0.048000,-0.048000)"/>
    <path d="M195 354Q195 401 205.5 445.0Q216 489 239.0 523.5Q262 558 299.0 578.5Q336 599 389 599Q442 599 479.0 578.5Q516 558 539.0 523.5Q562 489 572.5 445.0Q583 401 583 354Q583 309 572.5 266.5Q562 224 539.0 190.0Q516 156 479.0 135.5Q442 115 389 115Q336 115 299.0 135.5Q262 156 239.0 190.0Q216 224 205.5 266.5Q195 309 195 354ZM38 354Q38 276 62.0 208.5Q86 141 131.0 91.0Q176 41 241.5 12.5Q307 -16 389 -16Q472 -16 537.0 12.5Q602 41 647.0 91.0Q692 141 716.0 208.5Q740 276 740 354Q740 434 716.0 502.5Q692 571 647.0 622.0Q602 673 537.0 702.0Q472 731 389 731Q307 731 241.5 702.0Q176 673 131.0 622.0Q86 571 62.0 502.5Q38 434 38 354Z" transform="translate(80.7,90.0) scale(0.048000,-0.048000)"/>
    <path d="M226 132V582H338Q396 582 435.5 565.5Q475 549 499.0 518.0Q523 487 533.5 443.5Q544 400 544 346Q544 287 529.0 246.0Q514 205 489.0 179.5Q464 154 432.0 143.0Q400 132 366 132ZM69 714V0H377Q459 0 519.5 27.5Q580 55 620.5 103.0Q661 151 681.0 217.0Q701 283 701 361Q701 450 676.5 516.0Q652 582 608.5 626.0Q565 670 505.5 692.0Q446 714 377 714Z" transform="translate(124.0,90.0) scale(0.048000,-0.048000)"/>
    <path d="M226 391V592H398Q452 592 479.0 568.5Q506 545 506 493Q506 439 479.0 415.0Q452 391 398 391ZM69 714V0H226V279H383Q442 279 468.0 253.0Q494 227 502 171Q508 128 511.0 81.0Q514 34 527 0H684Q673 15 667.5 36.5Q662 58 659.5 82.0Q657 106 656.0 129.0Q655 152 654 169Q652 196 646.5 223.0Q641 250 629.0 272.5Q617 295 598.0 311.5Q579 328 550 336V338Q610 362 636.5 408.0Q663 454 663 517Q663 558 648.5 593.5Q634 629 606.5 656.0Q579 683 540.5 698.5Q502 714 454 714Z" transform="translate(165.6,90.0) scale(0.048000,-0.048000)"/>
    <path d="M69 714V0H226V714Z" transform="translate(206.2,90.0) scale(0.048000,-0.048000)"/>
    <path d="M585 81 601 0H701V386H401V269H559Q552 194 509.5 154.5Q467 115 389 115Q336 115 299.0 135.5Q262 156 239.0 190.0Q216 224 205.5 266.5Q195 309 195 354Q195 401 205.5 445.0Q216 489 239.0 523.5Q262 558 299.0 578.5Q336 599 389 599Q446 599 486.0 569.0Q526 539 540 479H690Q684 540 657.0 587.0Q630 634 588.5 666.0Q547 698 495.5 714.5Q444 731 389 731Q307 731 241.5 702.0Q176 673 131.0 622.0Q86 571 62.0 502.5Q38 434 38 354Q38 276 62.0 208.5Q86 141 131.0 91.0Q176 41 241.5 12.5Q307 -16 389 -16Q441 -16 492.0 5.5Q543 27 585 81Z" transform="translate(226.4,90.0) scale(0.048000,-0.048000)"/>
    <path d="M195 354Q195 401 205.5 445.0Q216 489 239.0 523.5Q262 558 299.0 578.5Q336 599 389 599Q442 599 479.0 578.5Q516 558 539.0 523.5Q562 489 572.5 445.0Q583 401 583 354Q583 309 572.5 266.5Q562 224 539.0 190.0Q516 156 479.0 135.5Q442 115 389 115Q336 115 299.0 135.5Q262 156 239.0 190.0Q216 224 205.5 266.5Q195 309 195 354ZM38 354Q38 276 62.0 208.5Q86 141 131.0 91.0Q176 41 241.5 12.5Q307 -16 389 -16Q472 -16 537.0 12.5Q602 41 647.0 91.0Q692 141 716.0 208.5Q740 276 740 354Q740 434 716.0 502.5Q692 571 647.0 622.0Q602 673 537.0 702.0Q472 731 389 731Q307 731 241.5 702.0Q176 673 131.0 622.0Q86 571 62.0 502.5Q38 434 38 354Z" transform="translate(268.8,90.0) scale(0.048000,-0.048000)"/>
    <path d="M69 714V0H574V132H226V714Z" transform="translate(331.5,90.0) scale(0.048000,-0.048000)"/>
    <path d="M249 276 342 538H344L434 276ZM264 714 -6 0H152L208 159H475L529 0H692L425 714Z" transform="translate(366.0,90.0) scale(0.048000,-0.048000)"/>
    <path d="M487 225V714H330V232Q330 213 328.5 192.5Q327 172 319.5 154.5Q312 137 295.0 126.0Q278 115 247 115Q219 115 201.5 124.0Q184 133 174.0 148.5Q164 164 160.0 186.0Q156 208 156 234V266H14V204Q14 145 34.0 103.5Q54 62 87.0 35.5Q120 9 162.0 -3.5Q204 -16 249 -16Q329 -16 376.0 8.5Q423 33 448.0 69.5Q473 106 480.0 148.0Q487 190 487 225Z" transform="translate(404.8,90.0) scale(0.048000,-0.048000)"/>
    <path d="M195 354Q195 401 205.5 445.0Q216 489 239.0 523.5Q262 558 299.0 578.5Q336 599 389 599Q442 599 479.0 578.5Q516 558 539.0 523.5Q562 489 572.5 445.0Q583 401 583 354Q583 309 572.5 266.5Q562 224 539.0 190.0Q516 156 479.0 135.5Q442 115 389 115Q336 115 299.0 135.5Q262 156 239.0 190.0Q216 224 205.5 266.5Q195 309 195 354ZM38 354Q38 276 62.0 208.5Q86 141 131.0 91.0Q176 41 241.5 12.5Q307 -16 389 -16Q472 -16 537.0 12.5Q602 41 647.0 91.0Q692 141 716.0 208.5Q740 276 740 354Q740 434 716.0 502.5Q692 571 647.0 622.0Q602 673 537.0 702.0Q472 731 389 731Q307 731 241.5 702.0Q176 673 131.0 622.0Q86 571 62.0 502.5Q38 434 38 354Z" transform="translate(437.5,90.0) scale(0.048000,-0.048000)"/>
    <path d="M675 270V714H518V270Q518 190 486.0 152.5Q454 115 370 115Q322 115 293.5 128.5Q265 142 249.0 163.5Q233 185 228.0 213.0Q223 241 223 270V714H66V270Q66 124 145.5 54.0Q225 -16 370 -16Q513 -16 594.0 54.5Q675 125 675 270Z" transform="translate(480.9,90.0) scale(0.048000,-0.048000)"/>
    <path d="M176 237H24Q23 171 48.0 123.0Q73 75 115.5 44.0Q158 13 213.5 -1.5Q269 -16 328 -16Q401 -16 456.5 1.0Q512 18 549.5 48.5Q587 79 606.0 121.0Q625 163 625 212Q625 272 599.5 310.5Q574 349 539.0 372.0Q504 395 468.5 405.5Q433 416 413 420Q346 437 304.5 448.0Q263 459 239.5 470.0Q216 481 208.0 494.0Q200 507 200 528Q200 551 210.0 566.0Q220 581 235.5 591.0Q251 601 270.0 605.0Q289 609 308 609Q337 609 361.5 604.0Q386 599 405.0 587.0Q424 575 435.5 554.0Q447 533 449 501H601Q601 563 577.5 606.5Q554 650 514.0 678.0Q474 706 422.5 718.5Q371 731 315 731Q267 731 219.0 718.0Q171 705 133.0 678.0Q95 651 71.5 610.5Q48 570 48 515Q48 466 66.5 431.5Q85 397 115.0 374.0Q145 351 183.0 336.5Q221 322 261 312Q300 301 338.0 292.0Q376 283 406.0 271.0Q436 259 454.5 241.0Q473 223 473 194Q473 167 459.0 149.5Q445 132 424.0 122.0Q403 112 379.0 108.5Q355 105 334 105Q303 105 274.0 112.5Q245 120 223.5 135.5Q202 151 189.0 176.0Q176 201 176 237Z" transform="translate(522.4,90.0) scale(0.048000,-0.048000)"/>
  </g>
  <g fill="#B5A595">
    <path d="M491 505H581Q579 564 558.5 606.5Q538 649 502.5 677.0Q467 705 420.0 718.0Q373 731 318 731Q269 731 222.5 718.5Q176 706 139.5 680.5Q103 655 81.0 615.5Q59 576 59 522Q59 473 78.5 440.5Q98 408 130.5 387.5Q163 367 204.0 354.5Q245 342 287.5 332.5Q330 323 371.0 314.0Q412 305 444.5 290.5Q477 276 496.5 253.0Q516 230 516 193Q516 154 500.0 129.0Q484 104 458.0 89.5Q432 75 399.5 69.0Q367 63 335 63Q295 63 257.0 73.0Q219 83 190.5 104.0Q162 125 144.5 157.5Q127 190 127 235H37Q37 170 60.5 122.5Q84 75 124.5 44.5Q165 14 218.5 -1.0Q272 -16 332 -16Q381 -16 430.5 -4.5Q480 7 520.0 32.5Q560 58 585.5 98.5Q611 139 611 196Q611 249 591.5 284.0Q572 319 539.5 342.0Q507 365 466.0 378.5Q425 392 382.5 402.0Q340 412 299.0 420.5Q258 429 225.5 442.0Q193 455 173.5 475.5Q154 496 154 529Q154 564 167.5 587.5Q181 611 203.5 625.0Q226 639 255.0 645.0Q284 651 314 651Q388 651 435.5 616.5Q483 582 491 505Z" transform="translate(40.0,130.0) scale(0.016000,-0.016000)"/>
    <path d="M240 634V0H335V634H573V714H2V634Z" transform="translate(53.4,130.0) scale(0.016000,-0.016000)"/>
    <path d="M201 295 322 628H324L443 295ZM272 714 -6 0H91L171 215H473L551 0H656L377 714Z" transform="translate(65.6,130.0) scale(0.016000,-0.016000)"/>
    <path d="M78 714V0H173V327H501V407H173V634H547V714Z" transform="translate(78.9,130.0) scale(0.016000,-0.016000)"/>
    <path d="M78 714V0H173V327H501V407H173V634H547V714Z" transform="translate(91.1,130.0) scale(0.016000,-0.016000)"/>
    <path d="M78 714V0H574V80H173V327H544V407H173V634H571V714Z" transform="translate(110.7,130.0) scale(0.016000,-0.016000)"/>
    <path d="M77 714V0H167V573H169L542 0H646V714H556V135H554L178 714Z" transform="translate(123.5,130.0) scale(0.016000,-0.016000)"/>
    <path d="M612 89 637 0H697V376H384V296H612Q614 247 599.0 204.5Q584 162 554.5 130.5Q525 99 482.0 81.0Q439 63 383 63Q323 63 277.5 86.5Q232 110 201.0 149.5Q170 189 154.0 240.5Q138 292 138 348Q138 405 152.0 459.5Q166 514 195.5 556.5Q225 599 271.5 625.0Q318 651 383 651Q423 651 458.5 641.5Q494 632 522.0 613.0Q550 594 569.0 564.5Q588 535 595 494H690Q680 557 652.5 601.5Q625 646 584.5 675.0Q544 704 492.5 717.5Q441 731 383 731Q298 731 234.5 699.5Q171 668 128.5 615.0Q86 562 64.5 491.5Q43 421 43 343Q43 273 66.0 208.0Q89 143 133.0 93.0Q177 43 240.0 13.5Q303 -16 383 -16Q446 -16 508.0 8.5Q570 33 612 89Z" transform="translate(138.1,130.0) scale(0.016000,-0.016000)"/>
    <path d="M82 714V0H177V714Z" transform="translate(153.2,130.0) scale(0.016000,-0.016000)"/>
    <path d="M77 714V0H167V573H169L542 0H646V714H556V135H554L178 714Z" transform="translate(160.4,130.0) scale(0.016000,-0.016000)"/>
    <path d="M78 714V0H574V80H173V327H544V407H173V634H571V714Z" transform="translate(174.9,130.0) scale(0.016000,-0.016000)"/>
    <path d="M78 714V0H574V80H173V327H544V407H173V634H571V714Z" transform="translate(187.7,130.0) scale(0.016000,-0.016000)"/>
    <path d="M78 714V0H173V305H405Q440 305 461.0 294.5Q482 284 495.0 266.5Q508 249 514.0 225.5Q520 202 524 176Q529 150 530.0 123.0Q531 96 532.0 72.5Q533 49 536.5 30.0Q540 11 550 0H656Q641 18 633.5 41.5Q626 65 622.0 91.0Q618 117 617.0 144.0Q616 171 614 197Q611 223 605.5 247.0Q600 271 588.5 290.5Q577 310 557.5 324.0Q538 338 507 344V346Q572 364 601.5 413.0Q631 462 631 527Q631 614 573.5 664.0Q516 714 414 714ZM371 385H173V634H409Q476 634 506.0 600.0Q536 566 536 512Q536 473 522.5 448.5Q509 424 486.5 409.5Q464 395 434.0 390.0Q404 385 371 385Z" transform="translate(200.5,130.0) scale(0.016000,-0.016000)"/>
    <path d="M75 311Q75 285 94.5 266.0Q114 247 140 247Q165 247 184.0 267.0Q203 287 203 311Q203 337 184.0 356.0Q165 375 139 375Q113 375 94.0 356.0Q75 337 75 311Z" transform="translate(221.9,130.0) scale(0.016000,-0.016000)"/>
    <path d="M723 0 914 714H819L674 120H672L514 714H411L251 120H249L109 714H12L195 0H294L459 600H461L624 0Z" transform="translate(236.8,130.0) scale(0.016000,-0.016000)"/>
    <path d="M78 714V0H574V80H173V327H544V407H173V634H571V714Z" transform="translate(254.6,130.0) scale(0.016000,-0.016000)"/>
    <path d="M173 407V634H363Q394 634 421.5 630.5Q449 627 470.0 615.0Q491 603 503.0 581.0Q515 559 515 521Q515 464 479.5 435.5Q444 407 363 407ZM78 714V0H423Q476 0 516.5 17.5Q557 35 584.5 63.5Q612 92 626.0 129.0Q640 166 640 205Q640 271 605.0 317.0Q570 363 504 377V379Q555 399 582.5 440.5Q610 482 610 539Q610 593 585.5 630.0Q561 667 526 688Q510 698 487.5 703.0Q465 708 439.0 710.5Q413 713 386.5 713.5Q360 714 337 714ZM173 80V327H390Q420 327 448.0 321.5Q476 316 497.5 302.5Q519 289 532.0 266.0Q545 243 545 208Q545 148 509.5 114.0Q474 80 411 80Z" transform="translate(267.4,130.0) scale(0.016000,-0.016000)"/>
    <path d="M218 405V333Q242 336 269 336Q301 336 328.5 327.5Q356 319 376.0 301.5Q396 284 408.0 258.5Q420 233 420 200Q420 168 407.5 142.5Q395 117 374.0 99.5Q353 82 325.0 72.5Q297 63 266 63Q193 63 155.0 106.5Q117 150 115 219H30Q29 164 45.5 121.0Q62 78 93.0 48.5Q124 19 168.0 4.0Q212 -11 266 -11Q316 -11 360.5 2.5Q405 16 438.0 43.0Q471 70 490.5 110.5Q510 151 510 204Q510 268 478.5 315.0Q447 362 382 376V378Q424 397 452.0 434.0Q480 471 480 519Q480 568 463.5 604.0Q447 640 418.0 663.0Q389 686 349.5 697.5Q310 709 264 709Q211 709 170.5 692.0Q130 675 103.0 645.0Q76 615 61.5 573.0Q47 531 45 480H130Q130 511 138.0 539.0Q146 567 162.5 588.0Q179 609 204.5 621.5Q230 634 264 634Q318 634 354.0 605.5Q390 577 390 520Q390 492 379.0 470.0Q368 448 349.5 433.5Q331 419 306.5 411.5Q282 404 255 404H237Q232 404 227 404Q223 404 218 405Z" transform="translate(281.3,130.0) scale(0.016000,-0.016000)"/>
    <path d="M491 505H581Q579 564 558.5 606.5Q538 649 502.5 677.0Q467 705 420.0 718.0Q373 731 318 731Q269 731 222.5 718.5Q176 706 139.5 680.5Q103 655 81.0 615.5Q59 576 59 522Q59 473 78.5 440.5Q98 408 130.5 387.5Q163 367 204.0 354.5Q245 342 287.5 332.5Q330 323 371.0 314.0Q412 305 444.5 290.5Q477 276 496.5 253.0Q516 230 516 193Q516 154 500.0 129.0Q484 104 458.0 89.5Q432 75 399.5 69.0Q367 63 335 63Q295 63 257.0 73.0Q219 83 190.5 104.0Q162 125 144.5 157.5Q127 190 127 235H37Q37 170 60.5 122.5Q84 75 124.5 44.5Q165 14 218.5 -1.0Q272 -16 332 -16Q381 -16 430.5 -4.5Q480 7 520.0 32.5Q560 58 585.5 98.5Q611 139 611 196Q611 249 591.5 284.0Q572 319 539.5 342.0Q507 365 466.0 378.5Q425 392 382.5 402.0Q340 412 299.0 420.5Q258 429 225.5 442.0Q193 455 173.5 475.5Q154 496 154 529Q154 564 167.5 587.5Q181 611 203.5 625.0Q226 639 255.0 645.0Q284 651 314 651Q388 651 435.5 616.5Q483 582 491 505Z" transform="translate(300.7,130.0) scale(0.016000,-0.016000)"/>
    <path d="M78 714V0H574V80H173V327H544V407H173V634H571V714Z" transform="translate(314.0,130.0) scale(0.016000,-0.016000)"/>
    <path d="M580 499H675Q667 556 641.0 599.5Q615 643 576.0 672.0Q537 701 487.0 716.0Q437 731 381 731Q299 731 235.5 701.5Q172 672 129.5 621.0Q87 570 65.0 501.5Q43 433 43 355Q43 277 63.5 209.0Q84 141 125.0 91.0Q166 41 228.0 12.5Q290 -16 373 -16Q510 -16 589.0 59.0Q668 134 682 269H587Q584 225 569.0 187.0Q554 149 527.5 121.5Q501 94 464.5 78.5Q428 63 381 63Q317 63 271.0 87.0Q225 111 195.5 151.5Q166 192 152.0 246.5Q138 301 138 362Q138 418 152.0 470.0Q166 522 195.5 562.5Q225 603 270.5 627.0Q316 651 380 651Q455 651 509.5 613.0Q564 575 580 499Z" transform="translate(326.8,130.0) scale(0.016000,-0.016000)"/>
    <path d="M648 258V714H553V258Q553 162 505.5 112.5Q458 63 367 63Q271 63 220.0 112.5Q169 162 169 258V714H74V258Q74 115 151.5 49.5Q229 -16 367 -16Q502 -16 575.0 52.5Q648 121 648 258Z" transform="translate(341.4,130.0) scale(0.016000,-0.016000)"/>
    <path d="M78 714V0H173V305H405Q440 305 461.0 294.5Q482 284 495.0 266.5Q508 249 514.0 225.5Q520 202 524 176Q529 150 530.0 123.0Q531 96 532.0 72.5Q533 49 536.5 30.0Q540 11 550 0H656Q641 18 633.5 41.5Q626 65 622.0 91.0Q618 117 617.0 144.0Q616 171 614 197Q611 223 605.5 247.0Q600 271 588.5 290.5Q577 310 557.5 324.0Q538 338 507 344V346Q572 364 601.5 413.0Q631 462 631 527Q631 614 573.5 664.0Q516 714 414 714ZM371 385H173V634H409Q476 634 506.0 600.0Q536 566 536 512Q536 473 522.5 448.5Q509 424 486.5 409.5Q464 395 434.0 390.0Q404 385 371 385Z" transform="translate(355.9,130.0) scale(0.016000,-0.016000)"/>
    <path d="M82 714V0H177V714Z" transform="translate(369.9,130.0) scale(0.016000,-0.016000)"/>
    <path d="M240 634V0H335V634H573V714H2V634Z" transform="translate(377.0,130.0) scale(0.016000,-0.016000)"/>
    <path d="M373 292 646 714H538L329 374L115 714H2L278 292V0H373Z" transform="translate(389.2,130.0) scale(0.016000,-0.016000)"/>
    <path d="M75 311Q75 285 94.5 266.0Q114 247 140 247Q165 247 184.0 267.0Q203 287 203 311Q203 337 184.0 356.0Q165 375 139 375Q113 375 94.0 356.0Q75 337 75 311Z" transform="translate(410.0,130.0) scale(0.016000,-0.016000)"/>
    <path d="M173 407V634H363Q394 634 421.5 630.5Q449 627 470.0 615.0Q491 603 503.0 581.0Q515 559 515 521Q515 464 479.5 435.5Q444 407 363 407ZM78 714V0H423Q476 0 516.5 17.5Q557 35 584.5 63.5Q612 92 626.0 129.0Q640 166 640 205Q640 271 605.0 317.0Q570 363 504 377V379Q555 399 582.5 440.5Q610 482 610 539Q610 593 585.5 630.0Q561 667 526 688Q510 698 487.5 703.0Q465 708 439.0 710.5Q413 713 386.5 713.5Q360 714 337 714ZM173 80V327H390Q420 327 448.0 321.5Q476 316 497.5 302.5Q519 289 532.0 266.0Q545 243 545 208Q545 148 509.5 114.0Q474 80 411 80Z" transform="translate(424.9,130.0) scale(0.016000,-0.016000)"/>
    <path d="M648 258V714H553V258Q553 162 505.5 112.5Q458 63 367 63Q271 63 220.0 112.5Q169 162 169 258V714H74V258Q74 115 151.5 49.5Q229 -16 367 -16Q502 -16 575.0 52.5Q648 121 648 258Z" transform="translate(438.9,130.0) scale(0.016000,-0.016000)"/>
    <path d="M82 714V0H177V714Z" transform="translate(453.4,130.0) scale(0.016000,-0.016000)"/>
    <path d="M78 714V0H551V80H173V714Z" transform="translate(460.6,130.0) scale(0.016000,-0.016000)"/>
    <path d="M173 80V634H333Q399 634 444.0 615.5Q489 597 517.5 561.5Q546 526 558.5 475.5Q571 425 571 361Q571 295 557.5 248.5Q544 202 523.0 171.0Q502 140 475.5 122.0Q449 104 422.0 94.5Q395 85 371.0 82.5Q347 80 331 80ZM78 714V0H323Q412 0 477.0 25.0Q542 50 584.0 97.5Q626 145 646.0 214.5Q666 284 666 374Q666 546 577.0 630.0Q488 714 323 714Z" transform="translate(472.5,130.0) scale(0.016000,-0.016000)"/>
    <path d="M82 714V0H177V714Z" transform="translate(486.7,130.0) scale(0.016000,-0.016000)"/>
    <path d="M77 714V0H167V573H169L542 0H646V714H556V135H554L178 714Z" transform="translate(493.9,130.0) scale(0.016000,-0.016000)"/>
    <path d="M612 89 637 0H697V376H384V296H612Q614 247 599.0 204.5Q584 162 554.5 130.5Q525 99 482.0 81.0Q439 63 383 63Q323 63 277.5 86.5Q232 110 201.0 149.5Q170 189 154.0 240.5Q138 292 138 348Q138 405 152.0 459.5Q166 514 195.5 556.5Q225 599 271.5 625.0Q318 651 383 651Q423 651 458.5 641.5Q494 632 522.0 613.0Q550 594 569.0 564.5Q588 535 595 494H690Q680 557 652.5 601.5Q625 646 584.5 675.0Q544 704 492.5 717.5Q441 731 383 731Q298 731 234.5 699.5Q171 668 128.5 615.0Q86 562 64.5 491.5Q43 421 43 343Q43 273 66.0 208.0Q89 143 133.0 93.0Q177 43 240.0 13.5Q303 -16 383 -16Q446 -16 508.0 8.5Q570 33 612 89Z" transform="translate(508.4,130.0) scale(0.016000,-0.016000)"/>
    <path d="M78 714V0H173V327H501V407H173V634H547V714Z" transform="translate(531.0,130.0) scale(0.016000,-0.016000)"/>
    <path d="M78 714V0H173V305H405Q440 305 461.0 294.5Q482 284 495.0 266.5Q508 249 514.0 225.5Q520 202 524 176Q529 150 530.0 123.0Q531 96 532.0 72.5Q533 49 536.5 30.0Q540 11 550 0H656Q641 18 633.5 41.5Q626 65 622.0 91.0Q618 117 617.0 144.0Q616 171 614 197Q611 223 605.5 247.0Q600 271 588.5 290.5Q577 310 557.5 324.0Q538 338 507 344V346Q572 364 601.5 413.0Q631 462 631 527Q631 614 573.5 664.0Q516 714 414 714ZM371 385H173V634H409Q476 634 506.0 600.0Q536 566 536 512Q536 473 522.5 448.5Q509 424 486.5 409.5Q464 395 434.0 390.0Q404 385 371 385Z" transform="translate(543.2,130.0) scale(0.016000,-0.016000)"/>
    <path d="M133 357Q133 411 147.0 463.5Q161 516 191.0 558.0Q221 600 268.0 625.5Q315 651 380 651Q445 651 492.0 625.5Q539 600 569.0 558.0Q599 516 613.0 463.5Q627 411 627 357Q627 303 613.0 250.5Q599 198 569.0 156.0Q539 114 492.0 88.5Q445 63 380 63Q315 63 268.0 88.5Q221 114 191.0 156.0Q161 198 147.0 250.5Q133 303 133 357ZM38 357Q38 284 59.5 216.5Q81 149 124.0 97.0Q167 45 231.0 14.5Q295 -16 380 -16Q465 -16 529.0 14.5Q593 45 636.0 97.0Q679 149 700.5 216.5Q722 284 722 357Q722 430 700.5 497.5Q679 565 636.0 617.0Q593 669 529.0 700.0Q465 731 380 731Q295 731 231.0 700.0Q167 669 124.0 617.0Q81 565 59.5 497.5Q38 430 38 357Z" transform="translate(557.2,130.0) scale(0.016000,-0.016000)"/>
    <path d="M80 714V0H170V594H172L395 0H476L699 594H701V0H791V714H661L435 114L210 714Z" transform="translate(572.3,130.0) scale(0.016000,-0.016000)"/>
    <path d="M78 714V0H574V80H173V327H544V407H173V634H571V714Z" transform="translate(596.7,130.0) scale(0.016000,-0.016000)"/>
    <path d="M359 0 613 714H514L308 95H306L102 714H0L251 0Z" transform="translate(609.5,130.0) scale(0.016000,-0.016000)"/>
    <path d="M78 714V0H574V80H173V327H544V407H173V634H571V714Z" transform="translate(622.2,130.0) scale(0.016000,-0.016000)"/>
    <path d="M78 714V0H173V305H405Q440 305 461.0 294.5Q482 284 495.0 266.5Q508 249 514.0 225.5Q520 202 524 176Q529 150 530.0 123.0Q531 96 532.0 72.5Q533 49 536.5 30.0Q540 11 550 0H656Q641 18 633.5 41.5Q626 65 622.0 91.0Q618 117 617.0 144.0Q616 171 614 197Q611 223 605.5 247.0Q600 271 588.5 290.5Q577 310 557.5 324.0Q538 338 507 344V346Q572 364 601.5 413.0Q631 462 631 527Q631 614 573.5 664.0Q516 714 414 714ZM371 385H173V634H409Q476 634 506.0 600.0Q536 566 536 512Q536 473 522.5 448.5Q509 424 486.5 409.5Q464 395 434.0 390.0Q404 385 371 385Z" transform="translate(635.0,130.0) scale(0.016000,-0.016000)"/>
    <path d="M373 292 646 714H538L329 374L115 714H2L278 292V0H373Z" transform="translate(649.0,130.0) scale(0.016000,-0.016000)"/>
    <path d="M723 0 914 714H819L674 120H672L514 714H411L251 120H249L109 714H12L195 0H294L459 600H461L624 0Z" transform="translate(662.4,130.0) scale(0.016000,-0.016000)"/>
    <path d="M78 714V0H173V327H549V0H644V714H549V407H173V714Z" transform="translate(680.2,130.0) scale(0.016000,-0.016000)"/>
    <path d="M78 714V0H574V80H173V327H544V407H173V634H571V714Z" transform="translate(694.7,130.0) scale(0.016000,-0.016000)"/>
    <path d="M78 714V0H173V305H405Q440 305 461.0 294.5Q482 284 495.0 266.5Q508 249 514.0 225.5Q520 202 524 176Q529 150 530.0 123.0Q531 96 532.0 72.5Q533 49 536.5 30.0Q540 11 550 0H656Q641 18 633.5 41.5Q626 65 622.0 91.0Q618 117 617.0 144.0Q616 171 614 197Q611 223 605.5 247.0Q600 271 588.5 290.5Q577 310 557.5 324.0Q538 338 507 344V346Q572 364 601.5 413.0Q631 462 631 527Q631 614 573.5 664.0Q516 714 414 714ZM371 385H173V634H409Q476 634 506.0 600.0Q536 566 536 512Q536 473 522.5 448.5Q509 424 486.5 409.5Q464 395 434.0 390.0Q404 385 371 385Z" transform="translate(707.5,130.0) scale(0.016000,-0.016000)"/>
    <path d="M78 714V0H574V80H173V327H544V407H173V634H571V714Z" transform="translate(721.5,130.0) scale(0.016000,-0.016000)"/>
  </g>
  <rect x="40" y="160" width="720" height="3" fill="#E89419" rx="1"/>
</svg>